/* XPM */
static char *setpassword[] = {
/* columns rows colors chars-per-pixel */
"32 32 189 2 ",
"   c #926E35",
".  c #937037",
"X  c #99753C",
"o  c #9C7940",
"O  c #A07C43",
"+  c #BC9C2F",
"@  c #C69604",
"#  c #CD9A00",
"$  c #C99804",
"%  c #CB9906",
"&  c #C2930D",
"*  c #C3950C",
"=  c #C5940E",
"-  c #CA9A09",
";  c #CA9B0B",
":  c #CD9D0A",
">  c #D09C00",
",  c #D09D00",
"<  c #D19F09",
"1  c #D2A302",
"2  c #D4A000",
"3  c #D6A405",
"4  c #D8A400",
"5  c #D8A600",
"6  c #DDA800",
"7  c #DAA807",
"8  c #DEAE04",
"9  c #D2A00A",
"0  c #D6A108",
"q  c #DAA808",
"w  c #DAAC0B",
"e  c #D9AC0C",
"r  c #E1AC00",
"t  c #E1B000",
"y  c #E0B001",
"u  c #E4B403",
"i  c #E9B700",
"p  c #EBBB00",
"a  c #EBBB02",
"s  c #ECBC00",
"d  c #EDBD00",
"f  c #ECBC03",
"g  c #EABB04",
"h  c #E2B308",
"j  c #C59F21",
"k  c #C5A329",
"l  c #C5A32B",
"z  c #C4A32C",
"x  c #C4A42C",
"c  c #EFC602",
"v  c #EEC605",
"b  c #F1C306",
"n  c #F2C306",
"m  c #F2C504",
"M  c #F3C504",
"N  c #F3C505",
"B  c #F4C504",
"V  c #F3C800",
"C  c #FBD700",
"Z  c #FBD705",
"A  c #FDD900",
"S  c #F5CF1D",
"D  c #F7D11D",
"F  c #F5D11F",
"G  c #F6D11E",
"H  c #A58249",
"J  c #A9854D",
"K  c #AE8A52",
"L  c #B18F56",
"P  c #B6935B",
"I  c #BB995E",
"U  c #9E9476",
"Y  c #9E9576",
"T  c #9F9577",
"R  c #9E957A",
"E  c #A19162",
"W  c #A09677",
"Q  c #A29877",
"!  c #A49C77",
"~  c #A79F76",
"^  c #CAA75F",
"/  c #DCB95C",
"(  c #C09D62",
")  c #CDA962",
"_  c #C6B464",
"`  c #DBBF6B",
"'  c #DBC159",
"]  c #F2D75F",
"[  c #FCE54E",
"{  c #FEE74E",
"}  c #FDED53",
"|  c #FFEF53",
" . c #FDED54",
".. c #858585",
"X. c #888986",
"o. c #898989",
"O. c #8A8A8A",
"+. c #8B8B8B",
"@. c #8C8C8C",
"#. c #8E8F8C",
"$. c #8E8E8E",
"%. c #8F8F8F",
"&. c #9C9889",
"*. c #909090",
"=. c #919191",
"-. c #929292",
";. c #939393",
":. c #949494",
">. c #959595",
",. c #9F9C91",
"<. c #989898",
"1. c #999999",
"2. c #9A9A9A",
"3. c #9B9B9B",
"4. c #9F9E98",
"5. c #9C9C9C",
"6. c #9D9D9D",
"7. c #9E9E9E",
"8. c #9F9F9F",
"9. c #A09C91",
"0. c #A09D91",
"q. c #A19D91",
"w. c #A29E91",
"e. c #A29F91",
"r. c #A09E9A",
"t. c #A7A486",
"y. c #A3A091",
"u. c #A7A793",
"i. c #A3A297",
"p. c #A3A29B",
"a. c #A0A0A0",
"s. c #A3A3A3",
"d. c #A5A4A1",
"f. c #A4A5A3",
"g. c #A4A4A4",
"h. c #A5A5A5",
"j. c #A6A6A6",
"k. c #A7A7A7",
"l. c #A8A8A8",
"z. c #AAAAAA",
"x. c #ABABAB",
"c. c #ACACAC",
"v. c #AEAEAE",
"b. c #B0B0B0",
"n. c #B1B1B1",
"m. c #B2B2B2",
"M. c #B3B3B3",
"N. c #B4B4B4",
"B. c #B5B5B5",
"V. c #B7B7B7",
"C. c #B8B8B8",
"Z. c #BABABA",
"A. c #BBBBBB",
"S. c #BCBCBC",
"D. c #BDBDBD",
"F. c #BEBEBE",
"G. c #BFBFBF",
"H. c #EEE28E",
"J. c #FBFA97",
"K. c #FDFC97",
"L. c #C1C1C1",
"P. c #C3C3C3",
"I. c #C4C4C4",
"U. c #C5C5C5",
"Y. c #C6C6C6",
"T. c #C8C8C8",
"R. c #CBCBCB",
"E. c #CCCCCC",
"W. c #CDCDCD",
"Q. c #D0D0D0",
"!. c #D2D2D1",
"~. c #D4D5D4",
"^. c #DEDDDB",
"/. c #DCDCDC",
"(. c #DDDDDD",
"). c #DFDFDF",
"_. c #E3E3E2",
"`. c #E5E5E5",
"'. c #E6E6E6",
"]. c #EAEAEA",
"[. c #EBEBEB",
"{. c #ECECEC",
"}. c #EFEFEF",
"|. c #F0F0F0",
" X c #FAFAFA",
".X c #FBFBFB",
"XX c #FEFEFE",
"oX c #FFFFFF",
"OX c None",
/* pixels */
"OXOXOXOXOXOXOXOXOXOXOXOXOXOXOXOXOXOXOXOXOXOXOXOXOXOXOXOXOXOXOXOX",
"OXOXOXOXOXOXOXOXOXOXOXOXOXn.V.C.S.n.6.OXOXOXOXOXOXOXOXOXOXOXOXOX",
"OXOXOXOXOXOXOXOXOXOXOXC.L.Q.T.V.V.T.`.U.z.OXOXOXOXOXOXOXOXOXOXOX",
"OXOXOXOXOXOXOXOXOXOXS.L.V.6.k.k.k.k.1.1.(.C.OXOXOXOXOXOXOXOXOXOX",
"OXOXOXOXOXOXOXOXOXS.S.k.k.k.OXOXOXOX1.k...T.U.OXOXOXOXOXOXOXOXOX",
"OXOXOXOXOXOXOXOXOXS.V.6.z.OXOXOXOXOXOX$.a.6.Q.OXOXOXOXOXOXOXOXOX",
"OXOXOXOXOXOXOXOXn.L.1.6.OXOXOXOXOXOXOXOX>.;.U.U.OXOXOXOXOXOXOXOX",
"OXOXOXOXOXOXOXOXn.S.;.OXOXOXOXOXOXOXOXOXOX>.L.L.OXOXOXOXOXOXOXOX",
"OXOXOXOXOXOXOXOXV.V.o.OXOXOXOXOXOXOXOXOXOX;.V.T.OXOXOXOXOXOXOXOX",
"OXOXOXOXOXOXOXOXC.z.;.OXOXOXOXOXOXOXOXOXOX>.a.E.OXOXOXOXOXOXOXOX",
"OXOXOXOXOXOXOXOXC.z.6.OXOXOXOXOXOXOXOXOXOX1.a.T.OXOXOXOXOXOXOXOX",
"OXOXOXOXOXOXOXOXC.v.k.OXOXOXOXOXOXOXOXOXOXa.a.E.OXOXOXOXOXOXOXOX",
"OXOXOXOXOXOXOXOXC.n.n.OXOXOXOXOXOXOXOXOXOXz.a.E.OXOXOXOXOXOXOXOX",
"OXOXOXOXOXOXOXOXC.n.C.OXOXOXOXOXOXOXOXOXOXn.a.T.OXOXOXOXOXOXOXOX",
"OXOXOXOXOXOX' ] / ) ( P K H o .   X O J L I ^ ` H._ OXOXOXOXOXOX",
"OXOXOXOXOXOX' { D B d y 3 - * & = : 9 q u c C } K._ OXOXOXOXOXOX",
"OXOXOXOXOXOX' { S b p 8 1 $ @ % : 9 0 7 h v Z } K._ OXOXOXOXOXOX",
"OXOXOXOXOXOX' { G N d y j E T T R T T W Q ! ! t.u.&.;.;.;.$.OXOX",
"OXOXOXOXOXOX' { G N s e 4.^.[.[.{.{.{.{.{.{.{.{.{.{.{.{.{.`.S.OX",
"OXOXOXOXOXOX' { S V s k A. X^.#.Q.oXoXoXoXoXoXoXoXoXoXoXoXoX`.o.",
"OXOXOXOXOXOX' { D B d l S.oXoXg.oXoXoXoXoXoXoXoXoXoXoXoXoXoX].$.",
"OXOXOXOXOXOX' { F b f l S.oXoXg.oXoXoXoXoXoXoXoXoXoXoXoXoXoX].o.",
"OXOXOXOXOXOX' { G B d l S.oXoXg.oXoXoXoXoXoXoXoXoXoXoXoXoXoX].$.",
"OXOXOXOXOXOX' { D B d l S.oXoXg.oXoXoXoXoXoXoXoXoXoXoXoXoXoX].o.",
"OXOXOXOXOXOX' { D B d x S.oXoXg.oXoXoXoXoXoXoXoXoXoXoXoXoXoX].$.",
"OXOXOXOXOXOX' { D B f x S.oX).X.~.oXoXoXoXoXoXoXoXoXoXoXoXoX`.o.",
"OXOXOXOXOXOX' { D B d w d._.{.|.|.|.}.}.|.|.}.|.|.|.|.|.|.].U.OX",
"OXOXOXOXOXOX' { D B d t + R e.,.,.e.9.e.e.e.y.p.p.4.6.1.6.1.o.OX",
"OXOXOXOXOXOX' { D B d y 4 , # , , 4 6 r i V C | K._ OXOXOXOXOXOX",
"OXOXOXOXOXOX' { D B d y 4 , # , 2 4 6 r p V A | K._ OXOXOXOXOXOX",
"OXOXOXOXOXOXOXOXOXOXOXOXOXOXOXOXOXOXOXOXOXOXOXOXOXOXOXOXOXOXOXOX",
"OXOXOXOXOXOXOXOXOXOXOXOXOXOXOXOXOXOXOXOXOXOXOXOXOXOXOXOXOXOXOXOX"
};
